<?xml version="1.0" standalone="no"?>
<!DOCTYPE svg PUBLIC "-//W3C//DTD SVG 20010904//EN"
 "http://www.w3.org/TR/2001/REC-SVG-20010904/DTD/svg10.dtd">
<svg version="1.0" xmlns="http://www.w3.org/2000/svg"
 width="512.000000pt" height="512.000000pt" viewBox="0 0 512.000000 512.000000"
 preserveAspectRatio="xMidYMid meet">
<metadata>
Created by potrace 1.11, written by Peter Selinger 2001-2013
</metadata>
<g transform="translate(0.000000,512.000000) scale(0.100000,-0.100000)"
fill="#000000" stroke="none">
<path d="M2071 5033 c-15 -30 -14 -79 4 -113 9 -17 11 -30 6 -30 -4 0 -7 -12
-5 -27 9 -79 21 -140 29 -153 5 -8 8 -23 7 -33 -2 -10 3 -46 12 -80 31 -132
34 -119 -36 -165 -80 -52 -115 -86 -182 -175 -90 -120 -115 -142 -226 -200
-30 -16 -102 -56 -159 -90 -161 -96 -222 -160 -144 -151 139 16 483 22 608 9
95 -9 140 -21 208 -57 119 -64 218 -200 256 -353 21 -81 21 -86 21 -170 0 -90
-1 -101 -36 -240 -14 -55 -28 -108 -30 -117 -2 -10 -6 -28 -9 -40 -17 -71 -28
-140 -40 -243 -6 -48 -6 -364 0 -420 2 -22 7 -69 10 -105 3 -36 10 -90 15
-120 5 -30 12 -75 15 -100 23 -162 107 -518 155 -655 40 -112 62 -156 111
-221 61 -83 121 -89 158 -17 41 81 61 212 64 411 0 50 4 92 9 92 7 0 24 -54
34 -105 2 -11 6 -31 9 -45 7 -31 23 -121 30 -175 3 -22 8 -51 10 -65 3 -14 7
-41 10 -60 10 -61 53 -212 84 -292 74 -190 179 -355 312 -489 111 -111 299
-181 388 -143 48 20 41 50 -34 139 -149 177 -293 509 -350 810 -10 52 -19 196
-18 285 1 47 2 258 2 470 1 367 -1 471 -14 682 -3 51 -8 129 -10 173 -6 86 -7
104 -30 325 -25 237 -28 256 -55 415 -12 66 -23 134 -26 150 -3 17 -7 37 -10
45 -3 8 -8 26 -10 40 -11 62 -60 194 -109 295 -159 329 -421 556 -680 590 -49
6 -65 17 -65 43 0 8 -14 33 -30 56 -17 23 -32 51 -34 63 -6 26 -33 80 -45 87
-5 4 -17 29 -26 57 -9 27 -26 55 -36 62 -10 6 -19 17 -19 23 0 16 -38 86 -65
120 -22 28 -22 28 -34 7z m44 -83 c10 -22 15 -43 12 -46 -7 -7 -47 55 -47 74
0 25 17 11 35 -28z m56 -99 c45 -46 33 -73 -22 -50 -27 11 -49 42 -49 70 0 20
43 8 71 -20z m42 -99 c37 -25 56 -52 57 -80 0 -19 -4 -22 -27 -16 -64 15 -110
45 -121 80 l-10 34 36 0 c21 0 49 -8 65 -18z m22 -125 c49 -8 64 -17 86 -53
35 -57 11 -66 -95 -37 -72 19 -66 16 -70 40 -3 11 -9 37 -14 57 l-10 36 37
-19 c20 -11 50 -21 66 -24z m-11 -129 c-9 -13 -52 -9 -57 6 -3 8 -3 16 -1 19
8 8 63 -16 58 -25z m-60 -277 c3 -5 -3 -11 -14 -14 -12 -3 -20 -14 -20 -27 0
-13 8 -24 20 -27 26 -7 15 -23 -15 -23 -15 0 -31 10 -41 25 -15 23 -15 27 0
50 16 25 59 35 70 16z"/>
<path d="M2095 3602 c-1 -76 -5 -97 -33 -163 -18 -42 -62 -128 -99 -190 -212
-368 -315 -617 -368 -890 -13 -63 -25 -139 -30 -184 -4 -27 -9 -61 -11 -75 -9
-48 -12 -416 -4 -488 32 -269 98 -472 218 -671 52 -85 48 -79 128 -176 67 -80
206 -216 213 -209 3 3 1 8 -5 12 -13 10 -102 133 -157 217 -158 246 -263 554
-301 882 -13 109 -14 386 -2 478 8 64 17 124 22 150 2 11 9 47 15 79 44 244
171 552 329 801 160 252 194 415 103 497 -17 16 -18 13 -18 -70z"/>
</g>
</svg>
