<svg xmlns="http://www.w3.org/2000/svg" xmlns:xlink="http://www.w3.org/1999/xlink" width="808" height="1738" viewBox="0 0 808 1738"><defs><clipPath id="a"><rect width="808" height="1738" transform="translate(472 1024)" fill="#fff"/></clipPath></defs><g transform="translate(-472 -1024)" clip-path="url(#a)"><g transform="translate(-375.011 208.645) rotate(-8)" opacity="0.1"><path d="M3987.171,2638.78s-40.743-55.856-204.894-105.783-259.782-110.215-304.95-194.224-46.438-280.452-16.662-420.633,45.094-285.311,69.847-352.552,53.086-232.365,148.009-278.176,194.292,57.59,308.65,70.557,217.134-50.431,307.412-70.557" transform="translate(-2668.437 93.903)" fill="none" stroke="#a77ffc" stroke-width="2"/><path d="M4013.665,2700.566s-53.9-73.312-149.35-101.24-181.72-40.376-231.68-106.28-100.473-194.909-66.094-349.656,108.9-168.572,134.646-281.805-57.9-266.439,15.21-359.093,174.156-39.287,229.172-111.32,36.336-144.973,68.1-208.543,58.344-117.349,143.3-116.384" transform="translate(-2617.008 0)" fill="none" stroke="#a77ffc" stroke-width="2"/><path d="M4237.069,2536.479s-88.934-36.113-128.708-100.285-125.35-175.179-198.975-242.766-212.3-136.082-258.306-234.188-92.192-266.554-80.38-351.034,96.688-209.112,177.257-244.795,146.194-12.208,205.747-12.208,157.742-28.448,219-61.071,80.058-41.357,80.058-41.357" transform="translate(-2610.924 81.803)" fill="none" stroke="#a77ffc" stroke-width="2"/><circle cx="18.826" cy="18.826" r="18.826" transform="translate(945.119 2382.238)" fill="#a77ffc"/><circle cx="18.826" cy="18.826" r="18.826" transform="translate(1381.003 2369.205)" fill="#a77ffc"/><circle cx="18.826" cy="18.826" r="18.826" transform="translate(767 2046.274)" fill="#a77ffc"/><circle cx="18.826" cy="18.826" r="18.826" transform="translate(1100.068 1433.719)" fill="#a77ffc"/></g></g></svg>