<svg xmlns="http://www.w3.org/2000/svg" width="126" height="117" viewBox="0 0 126 117"><g transform="translate(-699 -1869)"><rect width="126" height="117" transform="translate(699 1869)" fill="none"/><path d="M193.236,178.685h0a55.823,55.823,0,0,0,5.213-10c0-.035.035-.071.035-.106a1.261,1.261,0,0,1,.142-.319,45.329,45.329,0,0,0,3.9-17.8c.035-.674.071-1.312.071-1.986v-1.383A57.232,57.232,0,0,0,192.172,114l-2.482,7.979c.142.248.284.5.39.709.213.426.426.816.638,1.241.071.142.142.248.213.39l.284.6c.106.248.213.461.319.709s.248.5.355.745.248.6.39.887c.177.39.319.78.5,1.206.071.177.142.355.213.567.071.177.142.39.213.6l.213.638.213.638c.284.816.532,1.6.745,2.411.035.177.106.39.142.6.035.071.035.142.071.213a6.9,6.9,0,0,1,.177.709,6.176,6.176,0,0,1,.177.78c.177.78.355,1.6.5,2.411l.106.567c.035.142.035.284.071.426a3.493,3.493,0,0,1,.071.6c0,.213.071.426.071.638a6.268,6.268,0,0,0,.106.745c.071.461.106.958.142,1.454a3.441,3.441,0,0,1,.035.6c.035.284.035.567.071.816a2.022,2.022,0,0,0,.035.461c0,.248.035.5.035.745,0,.319.035.674.035.993v1.667c0,.709-.035,1.419-.035,2.092a52.581,52.581,0,0,1-1.915,11.49v.035l-.035-.035a36.687,36.687,0,0,1-4.539-39.364h0l-1.738-5.036h0l-1.028-2.908a43.133,43.133,0,0,0,4.788,54.082h0a45.236,45.236,0,0,1-2.624,5.036h0a57.672,57.672,0,0,0-88.3.071,42.759,42.759,0,0,1-2.305-4.362c0-.035-.035-.035-.035-.071a43.07,43.07,0,0,0,4.362-54.72l-.993,2.943-1.667,4.929-2.553-7.837h0v-.035a57.27,57.27,0,0,0-3.475,5.639c-.355.638-.674,1.277-.993,1.95a60.225,60.225,0,0,0-2.553,6.029c-.106.248-.177.532-.284.78a6.618,6.618,0,0,0-.248.78c-.142.39-.248.78-.355,1.17s-.248.78-.355,1.17c-.071.284-.177.6-.248.887-.071.213-.106.461-.177.674a5.034,5.034,0,0,0-.177.78c-.177.709-.319,1.419-.461,2.128-.355,1.809-.6,3.617-.78,5.426-.071.745-.106,1.454-.177,2.2-.071,1.1-.106,2.2-.106,3.334v1.454c.142,8.44,1.6,15.107,4.5,20.959a.124.124,0,0,0,.035.071l.177.355a56.247,56.247,0,0,0,4.788,8.866,57.336,57.336,0,0,0-9.4,31.562H93.69a50.837,50.837,0,0,1,7.128-26.066h0a57.315,57.315,0,0,0,11.845,10.639,36.3,36.3,0,0,0-4.043,15.285l6.383.248a29.9,29.9,0,0,1,3.121-12.235h0a57.825,57.825,0,0,0,53.692-.071,29.708,29.708,0,0,1,3.156,12.306l6.383-.248a36.271,36.271,0,0,0-4.078-15.356,57.485,57.485,0,0,0,11.845-10.674,51.154,51.154,0,0,1,7.164,26.172h6.383A57.483,57.483,0,0,0,193.236,178.685ZM95.853,162.124a52.607,52.607,0,0,1-2.234-13.689v-3.121c0-.248.035-.426.035-.709s.035-.567.035-.816a6.33,6.33,0,0,1,.071-.816c.035-.532.106-1.1.142-1.631.035-.284.071-.567.106-.816l.106-.745v-.106l.106-.745V138.9l.106-.745c.177-.958.355-1.915.6-2.873.071-.248.106-.461.177-.745s.142-.567.213-.887l.035-.106c.248-.851.5-1.738.78-2.553a1.482,1.482,0,0,1,.142-.355c.071-.248.177-.461.248-.709.106-.319.213-.6.319-.922a5.912,5.912,0,0,1,.284-.709c.426-1.028.851-2.057,1.312-3.05l.319-.638c0-.035.035-.071.071-.106.142-.284.284-.532.426-.816s.319-.6.461-.851.248-.461.39-.709a36.537,36.537,0,0,1-4.256,40Zm80.75,25.321a51.317,51.317,0,0,1-72.026-8.653l-.035-.035a51.721,51.721,0,0,1,25.6-17.554,4.815,4.815,0,0,0-.106,1.028,5.5,5.5,0,0,0,10.994,0,5.352,5.352,0,0,0-.887-2.979c1.6-.142,3.192-.213,4.823-.213,1.6,0,3.192.071,4.752.213a5.352,5.352,0,0,0-.887,2.979,5.5,5.5,0,1,0,10.994,0,5.414,5.414,0,0,0-.106-1.064,51.464,51.464,0,0,1,25.64,17.483A50.149,50.149,0,0,1,176.6,187.445Z" transform="translate(616.8 1765)" fill="#ff007a"/></g></svg>