<svg xmlns="http://www.w3.org/2000/svg" width="96.724" height="110.542" viewBox="0 0 96.724 110.542"><path d="M85.393,0H11.331A11.358,11.358,0,0,0,0,11.386V86.112A11.358,11.358,0,0,0,11.331,97.5H74.008l-2.93-10.225,7.075,6.577,6.688,6.19,11.883,10.5V11.386A11.358,11.358,0,0,0,85.393,0ZM64.059,72.184s-1.99-2.377-3.648-4.477c7.241-2.045,10-6.577,10-6.577a31.589,31.589,0,0,1-6.356,3.261,36.374,36.374,0,0,1-8.014,2.377,38.72,38.72,0,0,1-14.315-.055A46.43,46.43,0,0,1,33.6,64.335a32.431,32.431,0,0,1-4.035-1.879c-.165-.111-.331-.166-.5-.277a.764.764,0,0,1-.221-.165c-.995-.553-1.548-.94-1.548-.94S29.957,65.5,36.976,67.6c-1.658,2.1-3.7,4.588-3.7,4.588-12.215-.387-16.858-8.4-16.858-8.4A74.018,74.018,0,0,1,24.374,31.56c7.959-5.969,15.531-5.8,15.531-5.8l.553.663c-9.949,2.873-14.536,7.24-14.536,7.24s1.216-.663,3.261-1.6A41.5,41.5,0,0,1,41.73,28.575a5.416,5.416,0,0,1,.94-.111,46.766,46.766,0,0,1,11.165-.11A45.055,45.055,0,0,1,70.47,33.66S66.1,29.515,56.708,26.641l.774-.884s7.572-.166,15.531,5.8a74.012,74.012,0,0,1,7.959,32.223s-4.7,8.014-16.913,8.4Zm-25.7-25.812a6.157,6.157,0,0,0,0,12.27A5.888,5.888,0,0,0,44,52.507a5.852,5.852,0,0,0-5.637-6.135m20.174,0a6.157,6.157,0,1,0,5.637,6.135,5.889,5.889,0,0,0-5.637-6.135" fill="#7289da"/></svg>