<svg xmlns="http://www.w3.org/2000/svg" width="20.226" height="40.812" viewBox="0 0 20.226 40.812"><path d="M111.13,6.343a.965.965,0,0,0,.085.888c.063.085.1.159.063.159-.106,0-.127.37-.032.613a.772.772,0,0,1,.063.381c-.053.222.169.687.286.592.074-.063.074-.085,0-.2-.137-.212-.116-.444.042-.4a3.926,3.926,0,0,0,.434.074c.4.053.909.73.7.941a1.53,1.53,0,0,1-.888-.3c-.243-.275-.55.116-.36.465a9.9,9.9,0,0,1,.286,1.311c0,.021-.106.085-.222.159a4.946,4.946,0,0,0-1.84,1.7,3.811,3.811,0,0,1-1.576,1.449,15.653,15.653,0,0,0-2.919,1.83c-.2.286-.212.275.19.233a27.251,27.251,0,0,1,5.806.042c2.379.561,3.754,3.426,3,6.24a24.631,24.631,0,0,0-.613,2.6c-.465,2.8-.159,6.377.931,10.8.687,2.813,1.639,4.442,2.411,4.124.455-.19.825-1.787.825-3.532a8.626,8.626,0,0,1,.042-1.174,9.512,9.512,0,0,1,.645,2.728,12.544,12.544,0,0,0,3.649,7.784c1.449,1.354,4.146,1.438,2.866.085a14.962,14.962,0,0,1-2.813-5.743,17.1,17.1,0,0,1-.381-5.626c.19-6.99-.6-15.377-1.713-18.179-1.354-3.416-3.807-5.721-6.3-5.88-.169-.011-.2-.042-.233-.18a1.779,1.779,0,0,0-.412-.761A.444.444,0,0,1,113,9.283a1.587,1.587,0,0,0-.381-.8,1.025,1.025,0,0,1-.212-.412c-.063-.328-.148-.486-.328-.582a.262.262,0,0,1-.159-.2,2.362,2.362,0,0,0-.455-.888l-.212-.3-.127.243m.455.687c.148.307.1.4-.106.222a.786.786,0,0,1-.243-.6c.063-.159.148-.063.349.381m.486.761c.19.275.169.486-.063.455-.423-.042-.624-.243-.624-.592v-.2l.3.1a1,1,0,0,1,.391.243m.137,1.7a2.073,2.073,0,0,0,.508.116c.3,0,.793.73.592.857a1.661,1.661,0,0,1-1-.148.986.986,0,0,0-.412-.116c-.032.021-.053-.042-.053-.127a2.269,2.269,0,0,0-.106-.465c-.116-.338-.106-.455.053-.317a1.426,1.426,0,0,0,.423.2m.063,1.026.275.116-.275.085c-.317.1-.3.106-.349-.137-.042-.212-.011-.222.349-.063m-.36,2.39c.116.063.116.063-.074.127-.338.106-.275.486.074.486.264,0,.106.116-.2.159-.222.021-.264.011-.37-.127a.435.435,0,0,1,.571-.645m-.582,4.431c0,.011.032.169.063.349.148.783-.275,1.9-1.428,3.8a20.842,20.842,0,0,0-3.152,10.449c-.148,4.156.994,7.466,3.49,10.057.571.592,1.311,1.258,1.121,1-.063-.085-.264-.349-.455-.592-4.484-5.785-4.59-14.457-.264-20.992,1.237-1.872,1.523-3.278.783-3.955-.1-.085-.159-.137-.159-.116" transform="translate(-105.114 -6.1)" fill="#fff" fill-rule="evenodd"/></svg>