<svg xmlns="http://www.w3.org/2000/svg" width="228.711" height="249.975" viewBox="0 0 228.711 249.975"><g transform="translate(-1224.3 -1318.481)"><circle cx="42.236" cy="42.236" r="42.236" transform="translate(1224.3 1483.983)" fill="#9999fc"/><path d="M1425.4,1493.872a42.236,42.236,0,1,1-42.236-42.236,42.236,42.236,0,0,1,42.236,42.236" transform="translate(27.607 31.519)" fill="#a77ffc"/><circle cx="42.236" cy="42.236" r="42.236" transform="translate(1328.869 1373.497)" fill="#675aac"/><circle cx="42.236" cy="42.236" r="42.236" transform="translate(1224.353 1318.481)" fill="#5957a5"/><path d="M15.86-18.46A1.514,1.514,0,0,1,17.017-18a1.69,1.69,0,0,1,.429,1.209V-1.534A1.707,1.707,0,0,1,17-.312,1.5,1.5,0,0,1,15.86.156a1.488,1.488,0,0,1-1.274-.6L5.1-12.792V-1.534A1.771,1.771,0,0,1,4.68-.312,1.452,1.452,0,0,1,3.536.156,1.452,1.452,0,0,1,2.392-.312a1.771,1.771,0,0,1-.416-1.222V-16.8A1.661,1.661,0,0,1,2.418-18a1.557,1.557,0,0,1,1.17-.455,1.461,1.461,0,0,1,1.248.6L14.3-5.564V-16.8A1.69,1.69,0,0,1,14.729-18,1.482,1.482,0,0,1,15.86-18.46ZM23.062.156a1.609,1.609,0,0,1-1.209-.468A1.679,1.679,0,0,1,21.4-1.534v-15.21a1.554,1.554,0,0,1,.429-1.17,1.628,1.628,0,0,1,1.183-.416h9.126q1.586,0,1.586,1.352,0,1.326-1.586,1.326H24.7v4.992h6.916q1.586,0,1.586,1.352,0,1.326-1.586,1.326H24.7v6.448a1.707,1.707,0,0,1-.442,1.222A1.567,1.567,0,0,1,23.062.156ZM42.432.13A1.669,1.669,0,0,1,41.2-.325a1.634,1.634,0,0,1-.455-1.209v-14.04H36.01q-1.56,0-1.56-1.378t1.56-1.378H48.828q1.56,0,1.56,1.378t-1.56,1.378H44.1v14.04a1.634,1.634,0,0,1-.455,1.209A1.634,1.634,0,0,1,42.432.13Z" transform="translate(1239.394 1534.225)" fill="#fff"/><path d="M1242.947,1351.834l-4.56-4.941,6.756-6.32a8.581,8.581,0,0,1,5.859-2.313h5.3a6.787,6.787,0,0,0,6.786,6.787h.435a6.787,6.787,0,0,0,6.786-6.787h5.15a8.577,8.577,0,0,1,6.045,2.493l6.512,6.474-4.687,4.605" transform="translate(3.334 4.682)" fill="none" stroke="#fff" stroke-linecap="round" stroke-linejoin="round" stroke-width="2"/><path d="M1245.586,1349.236v26.71h31.488v-26.71" transform="translate(5.039 7.28)" fill="none" stroke="#fff" stroke-linecap="round" stroke-linejoin="round" stroke-width="2"/><path d="M1377.336,1506.668l-7.079,3.722a4.178,4.178,0,0,1-6.062-4.405l1.352-7.883a4.174,4.174,0,0,0-1.2-3.7l-5.726-5.583a4.178,4.178,0,0,1,2.315-7.127l7.913-1.15a4.18,4.18,0,0,0,3.148-2.287l3.538-7.17a4.178,4.178,0,0,1,7.495,0l3.539,7.17a4.178,4.178,0,0,0,3.146,2.287l7.914,1.15a4.178,4.178,0,0,1,2.316,7.127l-5.726,5.583a4.174,4.174,0,0,0-1.2,3.7l1.352,7.883a4.179,4.179,0,0,1-6.064,4.405l-7.078-3.722A4.183,4.183,0,0,0,1377.336,1506.668Z" transform="translate(31.494 35.572)" fill="none" stroke="#fff" stroke-linecap="round" stroke-linejoin="round" stroke-width="2.162"/><path d="M1342.836,1378.415h8.141l-3.266,8.748h-6.532l-3.266-7.582" transform="translate(26.893 14.187)" fill="none" stroke="#fff" stroke-linecap="round" stroke-linejoin="round" stroke-width="2"/><path d="M1340.437,1389.572l-4.316,25.779,8.748,8.865,8.515-8.515-5.249-30.212" transform="translate(26.469 15.861)" fill="none" stroke="#fff" stroke-linecap="round" stroke-linejoin="round" stroke-width="2"/></g></svg>