<svg xmlns="http://www.w3.org/2000/svg" width="264.47" height="250" viewBox="0 0 264.47 250"><g transform="translate(-1373.782 -1055.477)"><rect width="264" height="250" transform="translate(1374.017 1055.477)" fill="none"/><rect width="113" height="112" rx="8" transform="translate(1373.782 1143.388)" fill="#9999fc"/><rect width="102.012" height="102.012" rx="8.001" transform="translate(1513.302 1178.458) rotate(-74.991)" fill="#a77ffc"/><g style="isolation:isolate"><path d="M44.352-3.78a3.429,3.429,0,0,1,.315,1.26A2.534,2.534,0,0,1,43.69-.5a3.3,3.3,0,0,1-2.174.819,2.777,2.777,0,0,1-1.543-.472,2.956,2.956,0,0,1-1.1-1.354l-4.158-9.45H11.655L7.5-1.512A2.891,2.891,0,0,1,6.363-.157,2.93,2.93,0,0,1,4.788.315,3.381,3.381,0,0,1,2.552-.5,2.534,2.534,0,0,1,1.575-2.52,3.429,3.429,0,0,1,1.89-3.78L19.656-42.651a3.326,3.326,0,0,1,1.418-1.575,4.019,4.019,0,0,1,2.047-.567,4.019,4.019,0,0,1,2.048.567,3.326,3.326,0,0,1,1.417,1.575ZM32.445-16.128,23.184-36.981l-9.2,20.853Z" transform="translate(1407.661 1220.388)" fill="#f2f2f2"/></g><g style="isolation:isolate"><path d="M28.829-21.056a10.019,10.019,0,0,1,5.482,3.538,10.228,10.228,0,0,1,1.943,6.381,9.959,9.959,0,0,1-3.625,8.208Q29,0,22.507,0H7.715A2.94,2.94,0,0,1,5.54-.783,2.861,2.861,0,0,1,4.757-2.9V-37.994a2.861,2.861,0,0,1,.783-2.117,2.94,2.94,0,0,1,2.175-.783H21.869q6.323,0,9.89,2.813a9.443,9.443,0,0,1,3.567,7.86,9.378,9.378,0,0,1-1.711,5.627A10.109,10.109,0,0,1,28.829-21.056ZM10.615-23.2H20.94q8.585,0,8.585-6.5a5.6,5.6,0,0,0-2.117-4.815Q25.291-36.08,20.94-36.08H10.615ZM21.869-4.815q4.467,0,6.555-1.624a5.994,5.994,0,0,0,2.088-5.047,6.278,6.278,0,0,0-2.117-5.192q-2.117-1.711-6.526-1.711H10.615V-4.815Z" transform="translate(1551.781 1156.662) rotate(15.009)" fill="#f2f2f2"/></g><path d="M1430.282,1255.388v19.9a5.745,5.745,0,0,0,5.745,5.745h92.929a5.745,5.745,0,0,0,5.745-5.745v-44.65a5.746,5.746,0,0,1,5.745-5.745h18.981a5.745,5.745,0,0,0,5.745-5.745v-26.777" fill="none" stroke="#fff" stroke-linecap="round" stroke-linejoin="round" stroke-width="2"/><path d="M1564.553,1189.414l-3.439,4.027a.813.813,0,0,0,.618,1.342h6.88a.813.813,0,0,0,.619-1.342l-3.44-4.027A.815.815,0,0,0,1564.553,1189.414Z" fill="#fff"/><path d="M1430.9,1145.739l3.439-4.026a.814.814,0,0,0-.619-1.343h-6.879a.814.814,0,0,0-.619,1.343l3.44,4.026A.813.813,0,0,0,1430.9,1145.739Z" fill="#fff"/><path d="M1527.893,1124.037h-16.07a5.663,5.663,0,0,1-5.663-5.664v-25.624a5.664,5.664,0,0,0-5.664-5.664h-64.551a5.663,5.663,0,0,0-5.663,5.664v50.639" fill="none" stroke="#fff" stroke-linecap="round" stroke-linejoin="round" stroke-width="2"/></g></svg>