<svg xmlns="http://www.w3.org/2000/svg" width="112.468" height="116.913" viewBox="0 0 112.468 116.913"><g transform="translate(-100.7 -94.8)"><path d="M213.168,123.576v-.527h0c-.226-17.966-10.848-28.249-29.19-28.249v6.1c10.019,0,21.883,3.578,22.976,20.189h-4.407c-1.055-9.6-8.4-16.121-18.607-16.121v6.1c5.273,0,11.337,2.674,12.43,9.981H156.633v.038h-.6c-1.205,0-2.411.075-3.541.151a56.009,56.009,0,0,0-51.79,54.614h.038c-.038.452-.038.9-.038,1.356a34.721,34.721,0,0,0,34.162,34.5h.678a22.1,22.1,0,0,0,10.848-3.239,21.5,21.5,0,0,0,10.245-18.23v-.226c.188-2.976.113-3.691-.264-4.52l-2.524,1.205-13.974.113v-7.872h18.644a57.607,57.607,0,0,0,9.529-1.017,3.19,3.19,0,0,0,.64-.151,56.251,56.251,0,0,0,36.347-25.688,53.448,53.448,0,0,0,3.39-6.516,56.026,56.026,0,0,0,4.746-22Zm-60.227,3.767h.075v45.5H106.99A49.608,49.608,0,0,1,152.942,127.343Zm-2.75,65.537a15.269,15.269,0,0,1-7.081,10.4,16.331,16.331,0,0,1-3.277,1.544V192.993Zm-16.46,12.693a28.567,28.567,0,0,1-26.818-26.592h26.818Zm69.078-62.449a49.7,49.7,0,0,1-35.405,28.7l-.075.038-.377.075h-.075a52.691,52.691,0,0,1-7.721.9v-45.65H206.84A49.618,49.618,0,0,1,202.81,143.124Z" transform="translate(0)" fill="#ff007a"/><circle cx="5.838" cy="5.838" r="5.838" transform="translate(182.283 133.557)" fill="#ff007a"/></g></svg>