<svg xmlns="http://www.w3.org/2000/svg" xmlns:xlink="http://www.w3.org/1999/xlink" width="111" height="111" viewBox="0 0 111 111"><defs><linearGradient id="a" x1="0.5" x2="0.5" y2="0.993" gradientUnits="objectBoundingBox"><stop offset="0" stop-color="#2aabee"/><stop offset="1" stop-color="#229ed9"/></linearGradient></defs><g transform="translate(0 0.229)"><circle cx="55.5" cy="55.5" r="55.5" transform="translate(0 -0.229)" fill="url(#a)"/><path d="M193.122,322.4l32.207-13.873c15.337-6.379,18.524-7.487,20.6-7.524a3.631,3.631,0,0,1,2.14.642,2.327,2.327,0,0,1,.786,1.5,9.736,9.736,0,0,1,.092,2.174c-.831,8.732-4.427,29.924-6.257,39.7-.774,4.139-2.3,5.526-3.774,5.662-3.207.3-5.642-2.12-8.749-4.156l-12.325-8.279c-5.453-3.593-1.918-5.568,1.19-8.8.813-.845,14.944-13.7,15.217-14.863a1.132,1.132,0,0,0-.257-.976,1.275,1.275,0,0,0-1.144-.111q-.731.166-23.294,15.4a10.485,10.485,0,0,1-5.989,2.212c-1.972-.043-5.765-1.115-8.585-2.032-3.459-1.124-6.207-1.719-5.968-3.628q.187-1.492,4.108-3.051Z" transform="translate(-168.124 -267.754)" fill="#fff" fill-rule="evenodd"/></g></svg>