<svg xmlns="http://www.w3.org/2000/svg" width="126" height="117" viewBox="0 0 126 117"><g transform="translate(-955 -1869)"><rect width="126" height="117" transform="translate(955 1869)" fill="none"/><path d="M207.06,167.34c-4.952.806-9.981,1.459-15.01,2,.038-4.146.115-8.292.269-12.515a153.011,153.011,0,0,0,22.957-6.027l-2.188-6.257a150.124,150.124,0,0,1-24.531,6.219,182.24,182.24,0,0,1-29.253,2.38,179.218,179.218,0,0,1-31.057-2.687,144.29,144.29,0,0,1-25.606-6.948l-2.342,6.181a154.889,154.889,0,0,0,24.185,6.795c.154,4.184.23,8.407.269,12.668-5.374-.614-10.711-1.344-15.931-2.265l-1.113,6.526c5.566.96,11.286,1.728,17.045,2.38-.038,16.431-.883,32.861-2.419,48.831l6.565.653c1.574-15.97,2.38-32.4,2.457-48.831,9.213.806,18.619,1.228,27.986,1.228,8.714,0,17.505-.346,26.143-1.075.077,16.392.883,32.746,2.457,48.677l6.6-.653c-1.574-15.932-2.38-32.285-2.419-48.639,5.374-.576,10.749-1.267,16.047-2.111Zm-41.192,3.647V159.623a189.013,189.013,0,0,0,19.77-1.728c-.115,4.069-.192,8.1-.23,12.054C178.921,170.488,172.395,170.833,165.869,170.987Zm-16.123-11.478v11.4c-6.142-.192-12.285-.537-18.427-1.113-.038-4.069-.115-8.139-.23-12.169C137.269,158.549,143.488,159.2,149.745,159.508Zm6.6,11.517V159.7c.96,0,1.919.038,2.879.038v11.286Z" transform="translate(859.7 1750.121)" fill="#ff007a"/></g></svg>