<svg xmlns="http://www.w3.org/2000/svg" width="111" height="90.153" viewBox="0 0 111 90.153"><path d="M99.59,70.55c.07.986.07,1.972.07,2.958,0,30.074-22.89,64.727-64.727,64.727A64.288,64.288,0,0,1,0,128.022a47.061,47.061,0,0,0,5.494.282,45.56,45.56,0,0,0,28.243-9.719,22.79,22.79,0,0,1-21.27-15.777,28.689,28.689,0,0,0,4.3.352,24.061,24.061,0,0,0,5.987-.775A22.752,22.752,0,0,1,4.507,80.058v-.282A22.911,22.911,0,0,0,14.79,82.664,22.783,22.783,0,0,1,7.747,52.237,64.664,64.664,0,0,0,54.655,76.043a25.681,25.681,0,0,1-.563-5.212A22.771,22.771,0,0,1,93.463,55.266,44.789,44.789,0,0,0,107.9,49.772a22.688,22.688,0,0,1-10,12.537A45.606,45.606,0,0,0,111,58.788,48.9,48.9,0,0,1,99.59,70.55Z" transform="translate(0 -48.082)" fill="#1ba4f2"/></svg>